<svg id="kC6v5x" xmlns="http://www.w3.org/2000/svg" width="50.306" height="50.318" viewBox="0 0 50.306 50.318">
  <g id="Group_12" data-name="Group 12" transform="translate(0 0)">
    <path id="Path_1459" data-name="Path 1459" d="M584.381,149.232a25.154,25.154,0,1,1,24.5,25.154A25.159,25.159,0,0,1,584.381,149.232Z" transform="translate(-584.381 -124.076)" fill="#050605"/>
    <path id="Path_1460" data-name="Path 1460" d="M754.4,284.291c2.155-.081,4.528-.044,6.9-.037a41.19,41.19,0,0,1,4.735.19,7.615,7.615,0,0,1,6.955,6.281,20.788,20.788,0,0,1,.293,3.887c.029,2.362.051,4.725.023,7.087a31.343,31.343,0,0,1-.247,4.562,7.6,7.6,0,0,1-6.215,6.536,20.809,20.809,0,0,1-3.887.294c-2.34.03-4.68.05-7.02.023a32,32,0,0,1-4.628-.247,7.573,7.573,0,0,1-6.543-6.238,21.347,21.347,0,0,1-.291-3.887c-.029-2.351-.051-4.7-.023-7.054a32.032,32.032,0,0,1,.245-4.562,7.574,7.574,0,0,1,6.231-6.551A20.223,20.223,0,0,1,754.4,284.291Z" transform="translate(-733.731 -273.525)" fill="#fff"/>
    <path id="Path_1461" data-name="Path 1461" d="M795.084,346.783c-1.949-.016-3.9.04-5.848-.069a6.919,6.919,0,0,1-3.669-1.018,5.063,5.063,0,0,1-2.121-3.623,24.351,24.351,0,0,1-.2-3.53c-.011-2.63-.022-5.261.013-7.891a13.942,13.942,0,0,1,.359-3.639,4.841,4.841,0,0,1,3.99-3.639,19.821,19.821,0,0,1,3.856-.262c2.641-.017,5.283-.025,7.924.012a13.677,13.677,0,0,1,3.67.372,4.837,4.837,0,0,1,3.59,3.96,19.764,19.764,0,0,1,.264,3.889c.016,2.63.024,5.261-.012,7.891a14.253,14.253,0,0,1-.366,3.671,4.956,4.956,0,0,1-4.312,3.672,31.539,31.539,0,0,1-4.533.205Z" transform="translate(-769.935 -309.784)" fill="#050605"/>
    <path id="Path_1462" data-name="Path 1462" d="M849.468,396.763a7.414,7.414,0,1,1,7.392,7.421A7.45,7.45,0,0,1,849.468,396.763Z" transform="translate(-831.734 -371.608)" fill="#fff"/>
    <path id="Path_1463" data-name="Path 1463" d="M1051.542,359.216a1.721,1.721,0,1,1-1.74,1.726A1.733,1.733,0,0,1,1051.542,359.216Z" transform="translate(-1018.666 -343.486)" fill="#fff"/>
    <path id="Path_1464" data-name="Path 1464" d="M892.993,428.2a4.82,4.82,0,1,1-4.846,4.695A4.825,4.825,0,0,1,892.993,428.2Z" transform="translate(-867.825 -407.852)" fill="#040505"/>
  </g>
</svg>
