<svg xmlns="http://www.w3.org/2000/svg" width="115.916" height="77.425" viewBox="0 0 115.916 77.425">
  <g id="Group_4" data-name="Group 4" transform="translate(-139 -79.891)">
    <path id="Path_1" data-name="Path 1" d="M794.9,394.738A20.938,20.938,0,0,0,815.834,373.8H794.9Z" transform="translate(-655.896 -293.909)" fill="#f27760"/>
    <g id="Group_2" data-name="Group 2" transform="translate(139 79.891)">
      <path id="Path_2" data-name="Path 2" d="M848.777,373.8H818.44A23.544,23.544,0,0,1,794.9,397.343a53.7,53.7,0,0,1,37.473,15.169A53.719,53.719,0,0,0,848.777,373.8Z" transform="translate(-794.896 -373.8)" fill="#f27760"/>
      <path id="Path_3" data-name="Path 3" d="M794.9,601.585v20.938h20.938A20.938,20.938,0,0,0,794.9,601.585Z" transform="translate(-794.896 -545.098)" fill="#f27760"/>
      <path id="Path_4" data-name="Path 4" d="M832.369,529.909A53.7,53.7,0,0,1,794.9,545.078a23.543,23.543,0,0,1,23.544,23.543h30.338A53.718,53.718,0,0,0,832.369,529.909Z" transform="translate(-794.896 -491.196)" fill="#f27760"/>
      <path id="Path_5" data-name="Path 5" d="M794.9,468.739v30.338a53.7,53.7,0,0,0,37.473-15.169A53.7,53.7,0,0,0,794.9,468.739Z" transform="translate(-794.896 -445.196)" fill="#ec411b" opacity="0.75"/>
      <path id="Path_6" data-name="Path 6" d="M794.9,468.739v30.338a53.7,53.7,0,0,0,37.473-15.169A53.7,53.7,0,0,0,794.9,468.739Z" transform="translate(-794.896 -445.196)" fill="#ad0a21"/>
    </g>
    <g id="Group_3" data-name="Group 3" transform="translate(187.527 111.919)">
      <path id="Path_7" data-name="Path 7" d="M990.582,503.511h.436v8.014l7-8.014h.536l-4.88,5.614,5.455,7.478H998.6l-5.237-7.181-2.341,2.658V516.6h-.436Z" transform="translate(-990.582 -503.372)" fill="#1a1818"/>
      <path id="Path_8" data-name="Path 8" d="M1032.6,503.511h.437l4.979,13.092h-.476l-1.349-3.61h-6.764l-1.349,3.61h-.456Zm-3.035,9.105h6.487l-3.234-8.589Z" transform="translate(-1018.436 -503.372)" fill="#1a1818"/>
      <path id="Path_9" data-name="Path 9" d="M1074.5,513.544l.377-.2c.436,1.706,1.865,2.6,3.828,2.6,2.182,0,3.472-1.309,3.472-3.015,0-1.468-.873-2.5-2.658-2.916l-1.726-.4c-1.9-.436-2.9-1.567-2.9-3.254a3.5,3.5,0,0,1,3.769-3.412,3.762,3.762,0,0,1,3.868,2.618l-.377.2a3.37,3.37,0,0,0-3.491-2.44,3.042,3.042,0,0,0-3.333,3.015c0,1.567.912,2.5,2.618,2.9l1.706.4c1.944.456,2.956,1.626,2.956,3.253,0,1.944-1.527,3.432-3.888,3.432C1076.542,516.321,1074.995,515.329,1074.5,513.544Z" transform="translate(-1053.689 -502.951)" fill="#1a1818"/>
      <path id="Path_10" data-name="Path 10" d="M1117.556,503.511h.436l4.979,13.092h-.476l-1.349-3.61h-6.764l-1.349,3.61h-.456Zm-3.035,9.105h6.487l-3.233-8.589Z" transform="translate(-1082.324 -503.372)" fill="#1a1818"/>
      <path id="Path_11" data-name="Path 11" d="M1163.135,503.511h.437l5.594,9.859,5.594-9.859h.436V516.6h-.417V504.265l-5.475,9.641h-.277l-5.475-9.641V516.6h-.417Z" transform="translate(-1120.345 -503.372)" fill="#1a1818"/>
      <path id="Path_12" data-name="Path 12" d="M1225.393,503.511h.436l4.979,13.092h-.476l-1.349-3.61h-6.765l-1.349,3.61h-.456Zm-3.035,9.105h6.487l-3.234-8.589Z" transform="translate(-1163.419 -503.372)" fill="#1a1818"/>
    </g>
  </g>
</svg>
