<svg xmlns="http://www.w3.org/2000/svg" width="221.897" height="102.506" viewBox="0 0 221.897 102.506">
  <g id="u3lW2b" transform="translate(0 0)">
    <g id="Group_5" data-name="Group 5" transform="translate(0 0)">
      <path id="Path_13" data-name="Path 13" d="M779.441,419.268c3.435,3.087,6.232,6.583,7.161,11.26,1.432,7.213-1.083,13.28-7.267,17.356-1.611,1.062-3.344,1.938-5.254,3.032l3.612,1.93c1.523,1.2,3.15,2.3,4.548,3.632,3.971,3.787,5.311,8.5,4.553,13.872-.206.8-.359,1.627-.627,2.41-2.187,6.388-7.936,13.8-18.647,12.157a18.372,18.372,0,0,1-9.282-4.013c-.754-.954-1.084-.707-1.092.393-.011,1.466.012,2.933-.019,4.4a16.473,16.473,0,0,1-15.137,16.373c-10.371.671-17.221-4.53-18.725-14.121a42.345,42.345,0,0,1-.25-7.774c-1.559.874-2.927,1.636-4.29,2.405-12.032,6.786-22.848-1.047-25.271-11.529-.094-.407-.21-.808-.317-1.212-.829-8.842,3.607-14.415,11.182-18.064.508-.244,1.225-.286,1.447-1.074l-5.906-3.384c-11.2-9.3-6.966-22.3,1.018-28.049,5.426-3.9,13.135-3.661,19.639.617.736.485,1.47.972,2.427,1.6.146-2.891-.194-5.5.3-8.1a16.4,16.4,0,0,1,16.506-13.763c9.032-.091,15.137,4.722,16.917,13.32a27.883,27.883,0,0,1,.448,7.08c-.07,1.4.309,1.588,1.468.8a23.191,23.191,0,0,1,10.138-4.2A15.686,15.686,0,0,1,779.441,419.268Zm-33.047,16.679a15.816,15.816,0,0,0,1.95-4.142c2.125-5.364,3.656-10.858,2.99-16.713-.383-3.37-1.506-6.391-4.643-8.237-8.44-4.968-17.876.322-18.045,10.059-.119,6.833,2.208,13,4.936,19.079.5,1.11,1.074,1.963-.518,2.871-1.529.872-1.933-.035-2.587-.96a62.671,62.671,0,0,0-7.639-9.146c-2.951-2.838-6.175-5.265-10.235-6.267-5.187-1.279-9.675.96-12.46,6.121a10.632,10.632,0,0,0,1.943,13.223,22.065,22.065,0,0,0,11.594,5.368,46.552,46.552,0,0,0,10.888,1.862c1.165.1,1.456.612,1.447,1.722-.009,1.078-.184,1.656-1.419,1.745a61.111,61.111,0,0,0-9.507,1.431c-4.778,1.114-9.5,2.448-13.143,6-2.536,2.469-3.791,5.45-2.92,9.065A11.118,11.118,0,0,0,712.3,479.141a18.9,18.9,0,0,0,9.858-5.854c3.495-2.749,6.052-6.328,8.558-9.916.91-1.3,1.578-.783,2.568-.368,1.276.534.932,1.256.516,2.154a41.281,41.281,0,0,0-3.261,8.544,28.709,28.709,0,0,0-1.88,11.656c.225,6.589,4.257,10.745,10.828,11.177,5.145.337,9.331-1.888,10.928-6.022a17.61,17.61,0,0,0,.665-10.253c-.354-1.836-.593-3.7-1.086-5.5a64.545,64.545,0,0,0-3.484-9.187c-.37-.828-1.319-1.67.234-2.585,1.535-.9,2.164-.286,2.946.892a53.348,53.348,0,0,0,6.348,7.775c3.3,3.368,6.882,6.349,11.627,7.5,4.674,1.131,9.127-.9,11.878-5.41a11.108,11.108,0,0,0-.745-13.082c-2.44-2.781-5.68-4.228-9.069-5.391a63.476,63.476,0,0,0-14.342-2.769c-1.062-.107-1.42-.495-1.391-1.568.026-1.01.052-1.735,1.347-1.823,1.667-.114,3.329-.35,4.979-.621,5.6-.916,11.139-2.018,15.961-5.276,8.432-5.7,5.016-16.208-.956-19.527-3.093-2.28-6.411-1.914-9.677-.612-6.158,2.457-10.3,7.281-14.149,12.411a7.131,7.131,0,0,0-1.879,2.475c-.847,1.7-1.835,1.41-3.136.537C745.159,437.6,746.393,436.789,746.394,435.946Z" transform="translate(-693.04 -399.621)" fill="#fff"/>
      <path id="Path_14" data-name="Path 14" d="M962.812,478.1l.219-.567c2.067-.579,3.371-.32,4.062,2.206.988,3.614,2.543,7.072,3.866,10.625.8-.148.646-.935.853-1.445,1.383-3.425,2.8-6.839,4.038-10.318.547-1.537,1.655-1.222,2.708-1.224,1.393,0,.949,1.132,1,1.86.313,4.453.59,8.909.855,13.366.046.779.369,1.72-1.048,1.751-1.309.029-1.258-.859-1.307-1.672-.188-3.064-.329-6.131-.514-9.195-.026-.431.226-1.071-.484-1.191-.675-.114-.719.488-.892.933Q974.3,488,972.42,492.759c-.28.714-.457,1.422-1.514,1.412-1.081-.01-1.176-.758-1.436-1.472-1.4-3.838-2.805-7.672-4.545-11.493-.248,3.617-.464,7.236-.765,10.848-.075.9.451,2.389-1.317,2.25-1.867-.147-.866-1.628-.842-2.431C962.139,487.277,962.835,482.71,962.812,478.1Z" transform="translate(-849.083 -444.722)" fill="#fff"/>
      <path id="Path_15" data-name="Path 15" d="M1190.9,481.194c0,3.786.023,7.516-.018,11.245-.009.788.474,1.959-1.091,1.965s-1.114-1.164-1.121-1.955q-.061-6.492,0-12.985c.006-.687-.431-1.7.659-1.94a2.285,2.285,0,0,1,2.726.936c2.358,3.543,4.837,7,7.27,10.5.271.389.544.776,1,1.426.485-1.83.107-3.38.14-4.9.05-2.3.025-4.608,0-6.911-.009-.805.339-1.112,1.126-1.129.754-.016,1.165.162,1.16,1.029-.023,4.957-.01,9.914-.013,14.871,0,.494.008.988-.695,1.061a2.34,2.34,0,0,1-2.49-1.074c-2.466-3.721-5.008-7.392-7.534-11.073C1191.758,481.885,1191.7,481.318,1190.9,481.194Z" transform="translate(-980.846 -444.803)" fill="#fff"/>
      <path id="Path_16" data-name="Path 16" d="M1082.348,485.964c0,2.372-.031,4.744.015,7.115.019.971-.287,1.4-1.311,1.369-1-.031-1.1-.582-1.083-1.375.032-1.743-.026-3.489.028-5.231.031-.983-.3-1.359-1.317-1.332-2.161.059-4.327.076-6.487-.005-1.187-.045-1.4.491-1.36,1.5.058,1.6,0,3.209.022,4.813.014.909.005,1.657-1.273,1.622-1.125-.03-1.181-.654-1.178-1.506q.025-7.01-.006-14.02c0-.881.108-1.469,1.208-1.479,1.08-.01,1.28.526,1.253,1.435-.041,1.394.043,2.793-.031,4.185-.056,1.063.253,1.493,1.395,1.448,2.089-.083,4.187-.075,6.277.006,1.215.048,1.574-.406,1.486-1.57-.094-1.249-.025-2.51-.014-3.765.007-.812-.225-1.7,1.137-1.741,1.517-.043,1.239.963,1.243,1.832.012,2.232,0,4.465,0,6.7Z" transform="translate(-911.045 -444.814)" fill="#fff"/>
      <path id="Path_17" data-name="Path 17" d="M1062.232,545.266c0-2.162.085-4.329-.032-6.484-.081-1.476.484-1.906,1.884-1.973a20.538,20.538,0,0,1,5.413.1c1.879.407,3.443,1.261,3.948,3.273a4.061,4.061,0,0,1-1.807,4.731c-.984.632-.718.994-.086,1.679,1.652,1.792,1.552,4.273,2.352,6.406.2.533-.179.741-.676.743-.69,0-1.466.148-1.734-.757-.355-1.2-.654-2.42-.992-3.627a3.393,3.393,0,0,0-2.523-2.765c-2.748-.631-3.289-.22-3.292,2.565,0,.976-.01,1.953,0,2.929.008.853.125,1.674-1.191,1.692-1.262.017-1.282-.693-1.271-1.61C1062.253,549.869,1062.234,547.567,1062.232,545.266Zm2.485-3.387c.419.852-1.146,2.944,1.625,2.873,3.03-.078,4.865-1.144,4.949-3.074s-1.587-2.956-4.319-3.2C1064.138,538.233,1064.65,540.026,1064.717,541.879Z" transform="translate(-907.441 -479.224)" fill="#fff"/>
      <path id="Path_18" data-name="Path 18" d="M1033.479,553.995c-1.139.213-1.327-.648-1.653-1.442-1.619-3.94-1.633-3.843-5.845-3.958-1.768-.049-2.706.506-3.089,2.217a18.362,18.362,0,0,1-.928,2.542c-.4,1.029-1.307.711-1.964.564-.919-.205-.319-.938-.165-1.352,1.791-4.827,3.652-9.627,5.429-14.46.359-.975,1.011-.976,1.8-.976s1.472-.028,1.833.937q2.743,7.332,5.586,14.627C1034.9,553.757,1034.564,554.126,1033.479,553.995ZM1027,539.382l-2.653,7.352h5.4Z" transform="translate(-882.647 -479.485)" fill="#fff"/>
      <path id="Path_19" data-name="Path 19" d="M1111.139,485.944c0-2.373.029-4.748-.017-7.121-.019-.964.279-1.39,1.3-1.371,2.513.048,5.027.02,7.541.018.671,0,1.261.047,1.259.967,0,.9-.569.989-1.251.988-1.536,0-3.074.056-4.607-.016-1.249-.059-1.853.193-1.841,1.679.027,3.461-.062,3.462,3.36,3.463.908,0,1.815.008,2.723,0,.7-.006,1.222.136,1.239,1.014.018.921-.545.978-1.228.973-1.536-.011-3.073.033-4.607-.021-1-.036-1.442.18-1.484,1.354-.163,4.591-.215,4.589,4.351,4.594.908,0,1.816.017,2.723,0,.68-.011,1.021.244,1.017.976s-.367.987-1.031.986c-2.792,0-5.585-.022-8.377.007-1.032.011-1.076-.617-1.073-1.374C1111.147,490.691,1111.14,488.317,1111.139,485.944Z" transform="translate(-935.859 -444.824)" fill="#fff"/>
      <path id="Path_20" data-name="Path 20" d="M967.275,536.387a8.472,8.472,0,0,1,3.351.466.865.865,0,0,1,.648,1.277c-.225.62-.556.968-1.237.662a6.975,6.975,0,0,0-3.283-.433,2.629,2.629,0,0,0-2.781,2.074c-.3,1.417.681,2.216,1.776,2.763.992.5,2.088.779,3.113,1.214,2.484,1.053,3.6,2.714,3.389,4.948s-1.683,3.706-4.218,4.3a10.327,10.327,0,0,1-5.569-.368c-.764-.243-1.445-.527-1.06-1.618.4-1.125,1.019-.56,1.636-.341a8.509,8.509,0,0,0,3.906.492c1.436-.171,2.57-.724,2.839-2.3a2.627,2.627,0,0,0-1.912-3.076c-.97-.392-1.973-.7-2.929-1.124-2.632-1.154-3.685-2.713-3.37-4.9s2.082-3.7,4.714-4.029A6.271,6.271,0,0,1,967.275,536.387Z" transform="translate(-848.84 -479.039)" fill="#fff"/>
      <path id="Path_21" data-name="Path 21" d="M1037.3,494.336c-6.2.009-9.849-3.291-9.847-8.555,0-5.078,3.938-8.758,9.439-8.819a12.618,12.618,0,0,1,3.741.311c.746.218,1.311.458,1.02,1.43-.268.9-.82.766-1.469.545a8.859,8.859,0,0,0-4.344-.31,6.549,6.549,0,0,0-5.854,7.369c.261,3.62,2.82,5.909,6.741,6.023a11.044,11.044,0,0,0,3.528-.345c.7-.21,1.223-.229,1.407.658.18.865-.34,1.048-1.007,1.253A13.385,13.385,0,0,1,1037.3,494.336Z" transform="translate(-887.262 -444.535)" fill="#fff"/>
      <path id="Path_22" data-name="Path 22" d="M1143.175,485.952c0-2.374.012-4.749-.01-7.123-.007-.792.108-1.352,1.1-1.364s1.369.377,1.362,1.364c-.03,3.91.04,7.822-.042,11.731-.031,1.451.415,1.973,1.89,1.85,1.526-.127,3.071-.034,4.607-.02.68.006,1.455-.143,1.479.957.022,1.011-.579,1.108-1.36,1.1-2.585-.015-5.169-.034-7.753.009-1.03.017-1.31-.42-1.29-1.386C1143.212,490.7,1143.177,488.327,1143.175,485.952Z" transform="translate(-954.466 -444.832)" fill="#fff"/>
      <path id="Path_23" data-name="Path 23" d="M995.51,546.428c0-2.02-.04-4.042.018-6.06.029-1-.319-1.375-1.316-1.321-1.111.06-2.228.016-3.343,0-.673-.007-1.266-.109-1.232-1.013.029-.777.534-.88,1.137-.88q5.957,0,11.913-.008c.681,0,1.041.265,1.012.984s-.438.946-1.1.934c-1.045-.019-2.094.048-3.134-.03-1.3-.1-1.663.469-1.643,1.709.063,3.9.013,7.8.036,11.7.006.917,0,1.63-1.27,1.6-1.216-.031-1.082-.8-1.083-1.56Q995.508,549.459,995.51,546.428Z" transform="translate(-865.301 -479.497)" fill="#fff"/>
      <path id="Path_24" data-name="Path 24" d="M1176.189,486.236c0,2.3-.023,4.61.012,6.914.013.842-.169,1.305-1.149,1.282-.885-.021-1.253-.322-1.248-1.229q.036-7.229.005-14.458c0-.855.268-1.264,1.193-1.3,1.131-.042,1.22.579,1.209,1.455-.03,2.444-.01,4.889-.01,7.333Z" transform="translate(-972.264 -444.821)" fill="#fff"/>
      <path id="Path_25" data-name="Path 25" d="M1014.986,485.742c0-2.3.008-4.606-.007-6.909,0-.763.042-1.358,1.074-1.374s1.309.452,1.3,1.394q-.029,7.118.016,14.237c.006.964-.314,1.391-1.332,1.367s-1.069-.617-1.062-1.386C1015,490.627,1014.987,488.185,1014.986,485.742Z" transform="translate(-880.02 -444.828)" fill="#fff"/>
      <path id="Path_26" data-name="Path 26" d="M786.3,583.952l-.1.137a2.148,2.148,0,0,1-.218-.2c-.009-.009.061-.087.094-.133Z" transform="translate(-747.019 -506.567)" fill="#fff"/>
    </g>
  </g>
</svg>
